<svg width="30" height="30" viewBox="0 0 30 30" fill="none" xmlns="http://www.w3.org/2000/svg">
<g clip-path="url(#clip0_1_174)">
<path d="M14.9936 21.2284C13.5598 21.2284 12.3933 22.3911 12.3933 23.8195C12.3933 25.2484 13.5598 26.4115 14.9936 26.4115C16.4279 26.4115 17.5944 25.2484 17.5944 23.8195C17.5944 22.3911 16.4277 21.2284 14.9936 21.2284Z" fill="#FF005C"/>
<path d="M21.338 17.6981C19.645 16.0061 17.3916 15.0739 14.9936 15.0739C12.6048 15.0739 10.3575 15.9999 8.66502 17.6813C7.98146 18.3615 7.98028 19.4698 8.66218 20.1512C8.99343 20.4829 9.43447 20.6651 9.9039 20.6651C10.3712 20.6651 10.8106 20.4839 11.1414 20.155C12.1713 19.1314 13.5394 18.5676 14.9936 18.5676C16.4532 18.5676 17.8251 19.135 18.8557 20.1647C19.187 20.4955 19.6278 20.6781 20.0967 20.6781C20.5645 20.6781 21.0036 20.4969 21.3347 20.168C22.0192 19.4877 22.0203 18.38 21.338 17.6981Z" fill="#FF005C"/>
<path d="M29.4879 9.57508C25.6175 5.71418 20.4696 3.5885 14.9936 3.5885C9.52487 3.5885 4.38221 5.70921 0.512965 9.56095C-0.170594 10.2412 -0.171067 11.3495 0.512019 12.0309C0.843033 12.361 1.28336 12.5424 1.75184 12.5424C2.22009 12.5424 2.65994 12.3617 2.99096 12.0318C6.19817 8.83953 10.4607 7.08106 14.9936 7.08106C19.5331 7.08106 23.7999 8.84308 27.0078 12.0439C27.3388 12.3742 27.7799 12.5564 28.2481 12.5564C28.7161 12.5564 29.156 12.3747 29.4867 12.0453C30.1705 11.3645 30.1712 10.2559 29.4879 9.57508Z" fill="#FF005C"/>
<path d="M25.3097 13.7385C22.5546 10.9898 18.891 9.4762 14.9936 9.4762C11.1033 9.4762 7.44511 10.985 4.69242 13.724C4.36093 14.0536 4.17851 14.492 4.1778 14.9589C4.1778 15.4252 4.35951 15.8641 4.69052 16.1942C5.02154 16.5245 5.4621 16.7067 5.93058 16.7067C6.39836 16.7067 6.83821 16.525 7.1697 16.1961C9.26083 14.1156 12.0396 12.9695 14.9936 12.9695C17.9538 12.9695 20.7363 14.1196 22.8289 16.2072C23.1603 16.538 23.6007 16.7202 24.0694 16.7202C24.5374 16.7202 24.9775 16.5385 25.308 16.2091C25.639 15.8795 25.8219 15.4411 25.8222 14.9743C25.8227 14.5074 25.6405 14.069 25.3097 13.7385Z" fill="#FF005C"/>
</g>
<defs>
<clipPath id="clip0_1_174">
<rect width="30" height="30" fill="white"/>
</clipPath>
</defs>
</svg>
