<svg width="30" height="30" viewBox="0 0 30 30" fill="none" xmlns="http://www.w3.org/2000/svg">
<path d="M26.7 12.45C26.4 11.1 25.8 9.75 25.05 8.55L26.55 5.4L24.45 3.3L21.3 4.8C20.1 4.05 18.9 3.6 17.55 3.3L16.5 0H13.5L12.3 3.3C10.95 3.6 9.75 4.2 8.55 4.95L5.4 3.45L3.3 5.4L4.8 8.55C4.05 9.75 3.6 10.95 3.3 12.3L0 13.5V16.5L3.3 17.7C3.6 19.05 4.2 20.4 4.8 21.45L3.3 24.6L5.4 26.7L8.55 25.2C9.75 25.95 10.95 26.55 12.3 26.85L13.5 30H16.5L17.7 26.7C18.15 26.55 18.75 26.4 19.2 26.25L16.8 23.85C11.1 24.9 6 20.7 6 15C6 10.05 10.05 6 15 6C20.55 6 24.75 10.95 23.85 16.2L26.4 18.75C26.55 18.3 26.7 18 26.7 17.55L30 16.5V13.5L26.7 12.45Z" fill="#FF005C"/>
<path d="M29.4003 26.1L20.5503 17.25C22.6503 12.6 18.3003 7.65002 13.5003 9.00002L16.2003 11.7C17.4003 12.9 17.4003 14.85 16.2003 15.9C15.1503 17.1 13.0503 17.1 12.0003 15.9L9.3003 13.35C7.9503 17.55 12.3003 22.35 17.2503 20.4L26.1003 29.25C27.0003 30.15 28.3503 30.15 29.2503 29.25C30.1503 28.5 30.1503 27 29.4003 26.1Z" fill="#FF005C"/>
</svg>
