<svg width="30" height="30" viewBox="0 0 30 30" fill="none" xmlns="http://www.w3.org/2000/svg">
<g clip-path="url(#clip0_1_99)">
<path d="M21.4283 0.000488281H8.57164C7.39097 0.000488281 6.42886 0.962597 6.42886 2.14327V13.9286C6.42886 14.2843 6.60671 14.6164 6.90028 14.8157C7.08027 14.9378 7.28812 15 7.50025 15C7.63525 15 7.77024 14.9742 7.89881 14.9228L12.8101 12.9579L16.6649 14.8842C16.9371 15.0192 17.2563 15.0321 17.5413 14.9207L22.8983 12.7779C23.3054 12.6172 23.5711 12.2251 23.5711 11.7858V2.14327C23.5711 0.962597 22.6112 0.000488281 21.4283 0.000488281ZM21.4283 11.0615L17.1899 12.7543L13.3372 10.828C13.1851 10.753 13.0222 10.7144 12.8572 10.7144C12.7222 10.7144 12.5872 10.7401 12.4587 10.7915L8.57164 12.3472V4.28605H21.4283V11.0615Z" fill="#FF005C"/>
<path d="M23.0997 15.1843C22.8061 14.985 22.4312 14.9443 22.1012 15.0771L17.1899 17.0399L13.3372 15.1136C13.0651 14.9786 12.7436 14.9636 12.4587 15.0771L7.1017 17.2199C6.69671 17.3806 6.42886 17.777 6.42886 18.2142V27.8567C6.42886 29.0395 7.39097 29.9995 8.57164 29.9995H21.4283C22.6112 29.9995 23.5711 29.0395 23.5711 27.8567V16.0714C23.5711 15.7157 23.3954 15.3835 23.0997 15.1843ZM21.4283 25.7139H8.57164V18.9406L12.8079 17.2456L16.6628 19.172C16.9349 19.307 17.2542 19.3241 17.5392 19.2084L21.4283 17.6528V25.7139Z" fill="#FF005C"/>
<path d="M3.21472 12.8572H1.07194C0.480532 12.8572 0.000549316 13.3372 0.000549316 13.9286C0.000549316 14.52 0.480532 15 1.07194 15H3.21472C3.80612 15 4.28611 14.52 4.28611 13.9286C4.28611 13.3372 3.80612 12.8572 3.21472 12.8572Z" fill="#FF005C"/>
<path d="M3.97324 8.88653L1.83046 6.7416C1.41262 6.32376 0.73336 6.32376 0.315518 6.7416C-0.102324 7.15945 -0.102324 7.83871 0.315518 8.25655L2.4583 10.3993C2.66615 10.6093 2.94042 10.7143 3.2147 10.7143C3.48897 10.7143 3.76325 10.6093 3.97324 10.4015C4.39108 9.98363 4.39108 9.30437 3.97324 8.88653Z" fill="#FF005C"/>
<path d="M3.97325 17.4578C3.55541 17.0399 2.87615 17.0378 2.45616 17.4556L0.313382 19.5984C-0.104461 20.0162 -0.104461 20.6955 0.313382 21.1133C0.523374 21.3233 0.79765 21.4283 1.07193 21.4283C1.3462 21.4283 1.62048 21.3233 1.83047 21.1155L3.97325 18.9727C4.39109 18.5549 4.39109 17.8756 3.97325 17.4578Z" fill="#FF005C"/>
<path d="M28.9281 12.8572H26.7853C26.1939 12.8572 25.7139 13.3372 25.7139 13.9286C25.7139 14.52 26.1939 15 26.7853 15H28.9281C29.5195 15 29.9995 14.52 29.9995 13.9286C29.9995 13.3372 29.5195 12.8572 28.9281 12.8572Z" fill="#FF005C"/>
<path d="M29.6866 6.7438C29.2688 6.32596 28.5895 6.32596 28.1717 6.7438L26.0289 8.88658C25.6111 9.30443 25.6111 9.98369 26.0289 10.4015C26.2367 10.6094 26.511 10.7144 26.7853 10.7144C27.0596 10.7144 27.3339 10.6094 27.5438 10.4015L29.6866 8.25875C30.1045 7.84091 30.1045 7.16164 29.6866 6.7438Z" fill="#FF005C"/>
<path d="M29.6866 19.6006L27.5438 17.4557C27.126 17.0379 26.4467 17.0379 26.0289 17.4557C25.6111 17.8736 25.6111 18.5528 26.0289 18.9706L28.1717 21.1134C28.3795 21.3234 28.6538 21.4284 28.9281 21.4284C29.2024 21.4284 29.4766 21.3234 29.6866 21.1156C30.1045 20.6977 30.1045 20.0185 29.6866 19.6006Z" fill="#FF005C"/>
</g>
<defs>
<clipPath id="clip0_1_99">
<rect width="30" height="30" fill="white"/>
</clipPath>
</defs>
</svg>
