<svg width="20" height="15" viewBox="0 0 20 15" fill="none" xmlns="http://www.w3.org/2000/svg">
<path fill-rule="evenodd" clip-rule="evenodd" d="M14.8178 2.77172C16.1223 4.01852 16.9279 5.7545 16.9279 7.65341C16.9279 10.828 14.6836 13.5134 11.6338 14.3287L12.19 15H16.7744C18.3761 13.3504 19.3543 11.135 19.3543 8.71798C19.3543 4.7091 16.669 1.28516 12.9286 0L9.67721 10.3581L6.42587 0C2.68545 1.28516 0 4.7091 0 8.71798C0 11.135 0.978329 13.3504 2.57995 15H7.15482L7.72067 14.3287H7.7111C4.66118 13.5134 2.41695 10.828 2.41695 7.65341C2.41695 5.7545 3.22255 4.02805 4.52688 2.77172C4.65156 2.62784 4.90093 2.55114 5.14072 2.58949C5.38052 2.63749 5.61069 2.80054 5.72576 3.15536L9.31273 14.578C9.4278 14.5876 9.55253 14.5876 9.67721 14.5876C9.80184 14.5876 9.91695 14.5876 10.0416 14.578L13.6287 3.14571C13.7245 2.85807 13.926 2.66619 14.1657 2.59914C14.3766 2.55114 14.6069 2.59914 14.8178 2.77172Z" fill="#2F63B7"/>
</svg>
