<svg width="8" height="11" viewBox="0 0 8 11" fill="none" xmlns="http://www.w3.org/2000/svg">
<path d="M1.17019 0.754202C0.983936 0.941565 0.879395 1.19502 0.879395 1.4592C0.879395 1.72339 0.983936 1.97684 1.17019 2.1642L4.71019 5.7542L1.17019 9.2942C0.983936 9.48156 0.879395 9.73502 0.879395 9.9992C0.879395 10.2634 0.983936 10.5168 1.17019 10.7042C1.26315 10.7979 1.37375 10.8723 1.49561 10.9231C1.61747 10.9739 1.74818 11 1.88019 11C2.0122 11 2.1429 10.9739 2.26476 10.9231C2.38662 10.8723 2.49722 10.7979 2.59019 10.7042L6.83019 6.4642C6.92392 6.37124 6.99831 6.26064 7.04908 6.13878C7.09985 6.01692 7.12599 5.88621 7.12599 5.7542C7.12599 5.62219 7.09985 5.49148 7.04908 5.36963C6.99831 5.24777 6.92392 5.13717 6.83019 5.0442L2.59019 0.754202C2.49722 0.660474 2.38662 0.58608 2.26476 0.535311C2.1429 0.484542 2.0122 0.458403 1.88019 0.458403C1.74818 0.458403 1.61747 0.484542 1.49561 0.535311C1.37375 0.58608 1.26315 0.660474 1.17019 0.754202Z" fill="#797979"/>
</svg>
